<?xml version="1.0" standalone="no"?>
<!DOCTYPE svg PUBLIC "-//W3C//DTD SVG 20010904//EN"
 "http://www.w3.org/TR/2001/REC-SVG-20010904/DTD/svg10.dtd">
<svg version="1.0" xmlns="http://www.w3.org/2000/svg"
 width="700.000000pt" height="700.000000pt" viewBox="0 0 700.000000 700.000000"
 preserveAspectRatio="xMidYMid meet">
<metadata>
Created by potrace 1.14, written by Peter Selinger 2001-2017
</metadata>
<g transform="translate(0.000000,700.000000) scale(0.100000,-0.100000)"
fill="#000000" stroke="none">
<path d="M3422 6454 c-41 -24 -76 -44 -79 -44 -3 0 -17 -8 -31 -19 -15 -10
-47 -29 -72 -43 -41 -23 -253 -145 -422 -243 -38 -22 -68 -42 -68 -45 0 -3 44
-31 98 -62 53 -31 222 -129 375 -217 153 -89 280 -161 281 -161 2 0 86 48 187
106 101 59 204 118 229 132 25 14 77 44 115 67 39 22 77 44 85 48 8 4 24 13
35 20 11 7 39 23 63 36 23 14 42 28 42 32 0 6 -21 19 -146 89 -43 25 -273 158
-451 261 -84 49 -156 89 -160 88 -4 0 -41 -20 -81 -45z"/>
<path d="M2510 5927 c-14 -6 -27 -14 -30 -17 -3 -3 -21 -14 -41 -25 -143 -79
-558 -321 -558 -325 0 -3 170 -103 379 -223 l379 -218 53 30 c29 16 96 54 148
85 52 30 175 101 273 157 97 57 177 106 177 110 0 4 -62 42 -137 85 -76 44
-145 83 -154 89 -9 5 -40 23 -70 39 -30 16 -65 36 -79 46 -14 9 -47 30 -75 45
-27 15 -91 52 -142 81 -50 30 -93 54 -95 53 -1 0 -14 -6 -28 -12z"/>
<path d="M4380 5888 c-47 -28 -106 -62 -132 -77 -26 -14 -89 -50 -140 -80 -51
-30 -113 -65 -138 -79 -25 -14 -69 -40 -98 -59 -29 -18 -54 -33 -57 -33 -3 0
-27 -14 -55 -31 -50 -31 -51 -32 -28 -44 33 -17 66 -36 368 -211 l270 -156 32
20 c18 11 53 31 78 45 25 13 142 81 260 149 118 68 254 147 302 174 48 27 87
51 87 54 0 6 -637 374 -653 377 -6 1 -49 -21 -96 -49z"/>
<path d="M1645 5427 c-11 -8 -45 -28 -75 -44 -67 -37 -519 -299 -540 -314 -13
-9 -13 -11 0 -20 22 -14 602 -349 605 -349 2 0 33 -18 69 -40 77 -47 52 -53
251 63 66 38 140 81 165 95 25 14 78 45 118 69 41 24 76 43 78 43 3 0 17 8 32
19 15 10 40 26 55 35 l29 18 -127 74 c-70 41 -129 74 -131 74 -2 0 -32 17 -67
39 -111 68 -431 251 -439 251 -2 0 -12 -6 -23 -13z"/>
<path d="M4984 5237 c-193 -112 -364 -211 -379 -221 l-27 -18 104 -60 c218
-127 550 -318 553 -318 3 0 106 59 340 195 185 107 360 208 387 224 16 9 28
18 28 21 0 3 -28 22 -62 42 -127 73 -376 217 -471 272 -53 31 -103 59 -110 61
-6 3 -170 -87 -363 -198z"/>
<path d="M3490 5373 c-8 -4 -31 -16 -50 -28 -19 -12 -55 -33 -80 -47 -25 -14
-133 -76 -240 -138 -107 -62 -212 -123 -232 -134 -21 -12 -38 -24 -38 -27 0
-3 15 -13 33 -22 17 -9 50 -27 72 -41 22 -13 101 -58 175 -101 74 -43 149 -86
165 -95 17 -10 70 -41 118 -69 49 -28 90 -51 91 -51 3 0 190 107 519 298 101
58 134 82 125 89 -12 10 -394 233 -488 285 -25 14 -68 39 -96 56 -28 18 -53
32 -55 31 -2 0 -11 -3 -19 -6z"/>
<path d="M910 4500 l0 -382 23 14 c19 13 114 67 282 163 200 114 345 200 345
205 0 4 -57 39 -127 80 -71 41 -198 114 -283 164 -85 49 -174 100 -197 114
l-43 24 0 -382z"/>
<path d="M2565 4839 c-38 -22 -88 -51 -110 -63 -206 -117 -465 -270 -465 -275
0 -4 146 -92 325 -195 l324 -187 48 27 c26 14 102 58 168 96 125 73 252 147
368 213 37 22 67 43 67 47 0 4 -14 15 -32 24 -18 9 -160 91 -315 181 -156 90
-289 166 -295 168 -7 3 -44 -13 -83 -36z"/>
<path d="M4225 4799 c-77 -45 -165 -95 -195 -112 -30 -17 -56 -34 -58 -39 -2
-4 -8 -8 -13 -8 -13 0 -239 -132 -239 -139 0 -6 113 -74 319 -192 130 -75 251
-144 289 -166 l43 -24 102 59 c56 33 120 70 142 82 22 12 92 53 155 89 63 37
145 85 183 106 37 22 66 43 64 48 -1 5 -27 22 -57 39 -30 16 -88 50 -128 74
-40 24 -75 44 -77 44 -2 0 -85 47 -184 105 -99 58 -186 107 -193 110 -7 2 -76
-32 -153 -76z"/>
<path d="M5867 4747 c-125 -73 -235 -137 -245 -142 -9 -6 -52 -30 -94 -53 -43
-24 -78 -46 -78 -50 0 -6 65 -52 73 -52 2 0 132 -74 288 -165 l284 -165 3 190
c1 105 1 275 0 380 l-3 189 -228 -132z"/>
<path d="M1565 4262 c-110 -64 -255 -148 -323 -187 -67 -38 -122 -72 -122 -75
0 -3 28 -21 62 -40 114 -64 132 -75 313 -179 99 -57 201 -117 228 -133 l48
-28 40 21 c23 11 70 38 105 60 35 21 67 39 69 39 3 0 23 11 45 25 44 28 279
164 353 204 26 14 47 28 47 31 0 3 -67 43 -148 89 -81 47 -227 131 -325 188
-98 57 -181 103 -185 103 -4 -1 -97 -54 -207 -118z"/>
<path d="M3448 4350 c-25 -15 -66 -39 -90 -53 -23 -14 -90 -52 -148 -85 -58
-34 -162 -94 -232 -134 -71 -40 -128 -75 -128 -78 0 -3 43 -30 96 -60 54 -30
115 -66 138 -78 23 -13 57 -33 76 -44 19 -11 104 -61 189 -110 l153 -89 64 36
c332 186 593 344 581 353 -11 9 -400 236 -496 290 -25 14 -67 38 -93 53 -27
16 -52 29 -56 28 -4 0 -28 -13 -54 -29z"/>
<path d="M5059 4282 c-91 -53 -236 -137 -322 -187 -86 -49 -157 -92 -156 -95
0 -4 337 -202 488 -286 31 -17 80 -45 109 -62 29 -18 54 -32 56 -32 6 0 630
361 644 372 13 11 16 10 -417 259 -123 71 -226 129 -230 128 -3 0 -81 -44
-172 -97z"/>
<path d="M910 3500 l0 -382 33 20 c17 11 124 73 237 137 409 235 395 225 368
239 -13 7 -142 81 -288 166 -146 84 -284 164 -307 177 l-43 25 0 -382z"/>
<path d="M2435 3764 c-110 -64 -218 -126 -240 -139 -22 -12 -77 -44 -122 -70
-46 -26 -83 -50 -83 -54 0 -4 89 -58 198 -121 108 -62 254 -147 324 -187 l126
-75 99 58 c54 31 119 68 144 83 252 144 409 237 409 242 0 4 -62 42 -137 85
-76 44 -146 83 -155 89 -9 5 -29 17 -45 26 -15 8 -87 50 -160 92 -72 43 -138
79 -145 82 -7 3 -103 -47 -213 -111z"/>
<path d="M4346 3871 c-3 -5 -23 -18 -43 -29 -21 -11 -163 -92 -316 -180 l-278
-160 33 -20 c51 -31 398 -232 448 -260 25 -14 75 -43 112 -64 l67 -40 203 118
c112 64 258 148 326 187 67 38 122 73 122 76 0 7 -11 14 -315 188 -110 64
-204 119 -210 123 -22 16 -125 70 -134 70 -5 0 -12 -4 -15 -9z"/>
<path d="M6001 3825 c-51 -30 -94 -55 -96 -55 -1 0 -44 -25 -94 -55 -51 -30
-94 -55 -97 -55 -2 0 -33 -18 -68 -40 -35 -22 -68 -40 -75 -40 -6 0 -11 -4
-11 -10 0 -5 -4 -10 -10 -10 -14 0 -100 -54 -100 -63 0 -4 10 -12 23 -17 12
-6 29 -15 37 -20 8 -6 143 -84 300 -175 l285 -165 3 190 c1 105 1 275 0 380
l-3 190 -94 -55z"/>
<path d="M1443 3192 c-177 -103 -322 -189 -322 -192 0 -3 146 -90 325 -193
l325 -188 57 32 c31 18 140 81 242 140 247 143 289 167 328 186 17 9 32 19 32
22 0 3 -55 37 -123 76 -67 38 -209 120 -315 182 -106 62 -201 114 -210 117
-10 3 -145 -69 -339 -182z"/>
<path d="M3475 3366 c-11 -7 -156 -91 -322 -187 -167 -96 -303 -176 -303 -179
1 -5 426 -252 564 -328 34 -19 66 -38 73 -44 13 -11 36 0 158 72 44 25 176
102 293 169 116 68 214 126 216 130 4 6 -626 374 -648 378 -6 1 -20 -4 -31
-11z"/>
<path d="M5126 3320 c-54 -33 -100 -60 -102 -60 -3 0 -37 -20 -77 -44 -39 -24
-133 -78 -207 -120 -74 -43 -140 -83 -147 -89 -11 -11 159 -115 477 -293 30
-17 79 -45 108 -63 64 -38 22 -54 357 140 138 80 274 159 302 175 29 16 53 31
53 34 -1 6 -638 374 -653 377 -7 2 -56 -24 -111 -57z"/>
<path d="M910 2500 l0 -382 33 20 c34 21 421 245 544 316 40 22 72 44 70 48
-2 6 -275 167 -589 347 l-58 32 0 -381z"/>
<path d="M2615 2871 c-11 -10 -238 -142 -528 -306 -58 -33 -103 -63 -99 -67 7
-6 263 -157 293 -172 8 -4 23 -12 34 -19 11 -7 89 -52 173 -101 l153 -88 50
31 c28 17 52 31 53 31 2 0 66 37 142 81 77 45 155 90 174 101 104 60 198 113
218 124 23 12 18 15 -95 82 -98 58 -296 173 -498 289 -44 25 -56 28 -70 14z"/>
<path d="M4235 2805 c-71 -41 -141 -82 -155 -90 -14 -8 -100 -58 -192 -111
-93 -53 -168 -99 -168 -103 0 -6 194 -121 389 -232 25 -14 95 -54 154 -88
l108 -62 132 77 c73 42 157 90 187 107 30 16 62 35 70 41 8 7 29 18 45 26 17
8 32 17 35 20 3 3 16 11 30 18 62 31 145 81 147 89 2 5 -52 41 -119 80 -196
112 -352 202 -368 212 -24 16 -159 91 -162 91 -2 0 -61 -34 -133 -75z"/>
<path d="M5870 2749 c-224 -130 -349 -202 -396 -227 -13 -7 -24 -16 -24 -20 0
-4 145 -92 323 -195 l322 -186 3 189 c1 105 1 275 0 380 l-3 190 -225 -131z"/>
<path d="M1613 2290 c-84 -49 -172 -100 -195 -113 -24 -13 -99 -57 -168 -97
-69 -40 -149 -86 -177 -102 -29 -16 -53 -33 -53 -37 0 -3 146 -91 325 -195
l325 -188 342 198 c189 109 360 208 381 221 l39 24 -57 35 c-32 19 -59 34 -61
34 -2 0 -41 22 -86 49 -192 114 -449 261 -456 261 -4 0 -76 -41 -159 -90z"/>
<path d="M3325 2280 c-93 -55 -239 -139 -322 -187 -84 -49 -153 -90 -153 -93
1 -3 147 -89 326 -193 l326 -187 51 28 c29 16 111 63 182 104 72 41 191 110
265 152 74 43 141 83 148 90 9 9 -2 20 -55 49 -38 21 -75 42 -83 47 -57 37
-484 280 -498 284 -10 3 -85 -35 -187 -94z"/>
<path d="M5175 2348 c-27 -17 -72 -43 -100 -58 -27 -16 -117 -67 -200 -115
-233 -136 -249 -145 -272 -157 -13 -6 -23 -14 -23 -17 1 -3 172 -104 380 -224
l380 -219 272 158 c150 87 282 163 293 169 54 30 85 50 85 55 0 3 -12 12 -28
21 -15 9 -184 106 -375 217 -191 111 -351 202 -355 201 -4 0 -29 -14 -57 -31z"/>
<path d="M2471 1785 c-90 -52 -165 -95 -167 -95 -1 0 -33 -19 -70 -42 -38 -23
-90 -53 -115 -67 -186 -106 -239 -137 -239 -141 0 -3 40 -27 88 -54 74 -42
302 -174 422 -244 19 -12 59 -35 89 -51 l54 -31 81 45 c121 68 167 94 208 121
21 13 40 24 43 24 2 0 53 28 112 63 60 35 154 90 211 123 56 32 102 61 102 65
0 3 -98 63 -217 131 -120 69 -262 151 -316 182 -53 31 -103 59 -110 61 -6 3
-86 -38 -176 -90z"/>
<path d="M4176 1770 c-104 -60 -190 -110 -191 -110 -3 0 -212 -121 -243 -141
-12 -7 -21 -18 -19 -22 1 -5 26 -22 56 -38 29 -16 123 -70 209 -121 86 -50
182 -104 212 -121 30 -17 82 -47 115 -67 33 -20 83 -49 111 -64 l50 -27 161
93 c88 51 235 136 326 188 92 52 167 98 167 101 0 3 -10 11 -22 17 -26 13 -64
34 -253 144 -71 42 -146 85 -165 95 -19 11 -94 54 -167 96 -72 43 -137 79
-145 82 -7 3 -98 -44 -202 -105z"/>
<path d="M3125 1164 c-203 -118 -371 -218 -373 -222 -1 -4 167 -106 374 -225
362 -210 377 -217 402 -204 15 7 172 97 350 200 177 103 336 194 352 202 17 9
30 19 30 23 0 4 -89 59 -197 122 -410 237 -556 320 -562 319 -3 0 -172 -97
-376 -215z"/>
</g>
</svg>
